#!OML:ASF F:\VICON\USERDATA\INSTALL\rory3\rory3.ASF
:FULLY-SPECIFIED
:DEGREES
1939
root 1.10369 17.6513 -3.81374 127.658 82.5121 112.848
lowerback 14.1228 5.50476 1.93407
upperback 8.44941 8.2666 8.60684
thorax 0.0611556 4.30629 6.80946
lowerneck -9.81202 -14.4246 -9.37127
upperneck 28.148 -19.2884 7.03424
head 12.6102 -8.41282 1.38924
rclavicle -9.85972e-014 -2.22639e-014
rhumerus 15.819 5.73352 -99.4034
rradius 33.0409
rwrist -19.1756
rhand -17.836 -20.4133
rfingers 7.12502
rthumb 8.42865 -50.2251
lclavicle -9.85972e-014 -2.22639e-014
lhumerus -16.0734 -26.6629 92.1341
lradius 69.2917
lwrist 47.9396
lhand -26.5401 57.6847
lfingers 7.12502
lthumb 0.0240808 -992.336
rfemur -33.5517 -13.2914 3.34519
rtibia 35.956
rfoot -14.6091 -13.1614
rtoes 5.97239
lfemur -29.1417 -7.33381 -21.8325
ltibia 26.713
lfoot -9.95967 -12.9219
ltoes -2.31616
1940
root 1.1119 17.658 -3.84298 130.273 82.4003 115.423
lowerback 14.0709 5.46822 2.04384
upperback 8.4097 8.22873 8.56813
thorax 0.070633 4.2908 6.71549
lowerneck -9.98145 -14.4884 -9.139
upperneck 28.2523 -19.4079 6.97953
head 12.6636 -8.43714 1.30281
rclavicle 4.77083e-014 2.8625e-014
rhumerus 16.0775 4.73072 -100.156
rradius 33.8245
rwrist -21.7442
rhand -17.9936 -20.005
rfingers 7.12502
rthumb 8.27649 -49.8229
lclavicle 4.77083e-014 2.8625e-014
lhumerus -15.3189 -26.6218 92.0111
lradius 69.2494
lwrist 45.0717
lhand -26.5487 57.2761
lfingers 7.12502
lthumb 0.0157966 -992.744
rfemur -33.8339 -14.0508 3.74362
rtibia 35.9201
rfoot -14.0668 -13.1343
rtoes 9.26763
lfemur -29.2316 -7.76038 -21.7112
ltibia 26.8081
lfoot -9.86261 -13.0542
ltoes -0.486455
1941
root 1.11994 17.6719 -3.87394 132.919 82.2923 118.037
lowerback 14.0218 5.41227 2.1964
upperback 8.34595 8.17356 8.55725
thorax 0.0563813 4.26806 6.6282
lowerneck -10.0355 -14.583 -8.90315
upperneck 28.3153 -19.5216 6.74733
head 12.6524 -8.48629 1.16266
rclavicle -7.63333e-014 -7.95139e-014
rhumerus 16.2341 3.91962 -100.686
rradius 34.6339
rwrist -24.0302
rhand -18.1191 -19.9205
rfingers 7.12502
rthumb 8.15537 -49.7431
lclavicle -7.63333e-014 -7.95139e-014
lhumerus -14.5795 -26.6426 92.0549
lradius 69.013
lwrist 42.1522
lhand -26.382 56.5586
lfingers 7.12502
lthumb 0.176831 -993.462
rfemur -34.1037 -14.3542 4.0739
rtibia 35.975
rfoot -14.0886 -14.0642
rtoes 9.29769
lfemur -29.2595 -8.32487 -21.5167
ltibia 26.7763
lfoot -9.70416 -12.997
ltoes 0.734488
1942
root 1.1315 17.6746 -3.89889 135.14 82.2531 120.364
lowerback 14.0794 5.40042 2.37288
upperback 8.32596 8.18522 8.53983
thorax 0.0293212 4.28012 6.50248
lowerneck -9.90172 -14.6318 -8.77537
upperneck 28.2006 -19.6238 6.78624
head 12.5775 -8.52409 1.15345
rclavicle 6.99722e-014 9.54166e-014
rhumerus 16.492 2.90112 -101.231
rradius 35.3018
rwrist -25.7117
rhand -18.181 -19.6659
rfingers 7.12502
rthumb 8.09561 -49.4908
lclavicle 6.99722e-014 9.54166e-014
lhumerus -13.8205 -27.1622 92.0308
lradius 68.8839
lwrist 39.4424
lhand -26.5141 55.9945
lfingers 7.12502
lthumb 0.0492567 -994.026
rfemur -34.2553 -14.3664 4.36042
rtibia 36.0662
rfoot -14.5397 -15.1007
rtoes 9.37337
lfemur -29.1005 -8.18561 -21.6232
ltibia 26.6723
lfoot -9.81297 -13.0283
ltoes -0.901196
1943
root 1.14506 17.6649 -3.92174 136.216 82.1514 121.5
lowerback 14.0338 5.39912 2.34744
upperback 8.31364 8.17304 8.47263
thorax 0.0477717 4.27293 6.45026
lowerneck -9.81115 -14.6287 -8.56081
upperneck 28.1611 -19.6748 6.83867
head 12.5283 -8.52327 1.14279
rclavicle -4.92986e-014 5.40694e-014
rhumerus 16.7794 1.97059 -101.773
rradius 35.8982
rwrist -27.0758
rhand -18.539 -19.3502
rfingers 7.12502
rthumb 7.75015 -49.1882
lclavicle -4.92986e-014 5.40694e-014
lhumerus -12.9997 -27.7121 91.9355
lradius 68.7202
lwrist 37.0815
lhand -26.6396 55.6732
lfingers 7.12502
lthumb -0.0720416 -994.347
rfemur -34.5316 -14.7033 4.62016
rtibia 36.141
rfoot -14.6844 -15.7495
rtoes 9.54592
lfemur -28.9732 -7.65404 -22.0542
ltibia 26.5327
lfoot -9.92065 -13.2061
ltoes -3.02764
1944
root 1.15545 17.6621 -3.94615 137.307 82.0951 122.607
lowerback 14.0353 5.3896 2.29759
upperback 8.24443 8.15567 8.45475
thorax -0.0292406 4.2624 6.45549
lowerneck -9.77971 -14.6483 -8.36101
upperneck 28.2413 -19.6819 6.62419
head 12.5028 -8.52835 1.04065
rclavicle -1.27222e-013 -1.43125e-013
rhumerus 16.9892 1.17522 -102.103
rradius 36.443
rwrist -28.1672
rhand -19.016 -19.4052
rfingers 7.12502
rthumb 7.28968 -49.2597
lclavicle -1.27222e-013 -1.43125e-013
lhumerus -12.189 -28.1299 92.0008
lradius 68.3621
lwrist 34.9206
lhand -26.3669 55.0273
lfingers 7.12502
lthumb 0.191424 -994.993
rfemur -34.8417 -15.0109 4.96105
rtibia 36.1407
rfoot -14.755 -16.3285
rtoes 9.81998
lfemur -28.9068 -7.35021 -22.2814
ltibia 26.4437
lfoot -9.97761 -13.4928
ltoes -3.91599
1945
root 1.16398 17.6749 -3.97134 138.381 82.1043 123.681
lowerback 14.0742 5.37444 2.24866
upperback 8.15069 8.13674 8.4688
thorax -0.156428 4.25133 6.48888
lowerneck -9.63917 -14.6301 -8.28825
upperneck 28.2465 -19.6424 6.52372
head 12.4511 -8.51955 1.01375
rclavicle -4.13472e-014 -3.18055e-014
rhumerus 17.2294 0.396425 -102.372
rradius 36.8099
rwrist -28.9587
rhand -19.5451 -19.4742
rfingers 7.12502
rthumb 6.77896 -49.3456
lclavicle -4.13472e-014 -3.18055e-014
lhumerus -11.3655 -28.683 92.0949
lradius 67.9822
lwrist 32.9709
lhand -26.1929 54.4167
lfingers 7.12502
lthumb 0.359447 -995.604
rfemur -35.1509 -15.1944 5.35366
rtibia 36.0191
rfoot -14.9449 -16.9517
rtoes 10.5577
lfemur -28.8852 -7.60585 -22.1184
ltibia 26.483
lfoot -9.9384 -13.6515
ltoes -2.79151
1946
root 1.17404 17.6897 -3.99637 138.635 82.1153 123.886
lowerback 13.9648 5.39323 2.23605
upperback 8.1462 8.14403 8.38127
thorax -0.0930585 4.25289 6.41187
lowerneck -9.62474 -14.6144 -8.13835
upperneck 28.1909 -19.6311 6.46044
head 12.398 -8.51243 0.975673
rclavicle -6.99722e-014 5.08889e-014
rhumerus 17.7284 -0.521814 -102.642
rradius 37.0143
rwrist -29.6133
rhand -19.9242 -19.4289
rfingers 7.12502
rthumb 6.41301 -49.3118
lclavicle -6.99722e-014 5.08889e-014
lhumerus -10.3605 -29.6701 91.9919
lradius 67.7527
lwrist 31.4135
lhand -26.6228 54.3753
lfingers 7.12502
lthumb -0.055801 -995.645
rfemur -35.4756 -15.1961 5.61032
rtibia 35.8346
rfoot -15.5065 -17.3827
rtoes 11.6874
lfemur -28.9042 -8.22477 -21.857
ltibia 26.5966
lfoot -9.86946 -13.4008
ltoes -1.29592
1947
root 1.18488 17.6992 -4.02041 140.318 82.171 125.409
lowerback 13.6307 5.29489 2.52393
upperback 8.1849 8.01432 8.25246
thorax 0.194565 4.19465 6.17381
lowerneck -9.72751 -14.5383 -8.08689
upperneck 28.17 -19.5638 6.55666
head 12.4101 -8.46678 1.00658
rclavicle -6.36111e-015 7.63333e-014
rhumerus 18.3739 -1.20133 -102.918
rradius 37.1203
rwrist -30.4874
rhand -20.4344 -19.2627
rfingers 7.12502
rthumb 5.92039 -49.16
lclavicle -6.36111e-015 7.63333e-014
lhumerus -9.14127 -30.5456 91.754
lradius 67.4009
lwrist 30.2563
lhand -26.7738 54.1196
lfingers 7.12502
lthumb -0.201569 -995.901
rfemur -35.9355 -15.1544 6.0384
rtibia 35.689
rfoot -15.7602 -17.5631
rtoes 11.8102
lfemur -29.0776 -8.56252 -21.556
ltibia 26.6598
lfoot -9.81954 -13.0579
ltoes -0.975832
1948
root 1.19849 17.6936 -4.04221 141.781 82.1832 126.858
lowerback 13.4982 5.17265 2.76701
upperback 8.19494 7.86322 8.12684
thorax 0.338551 4.12587 5.94362
lowerneck -9.76351 -14.5041 -7.87705
upperneck 28.1784 -19.568 6.58369
head 12.399 -8.44495 0.984632
rclavicle -5.56597e-014 -6.99722e-014
rhumerus 18.871 -1.86411 -103.154
rradius 37.1252
rwrist -31.2855
rhand -21.0067 -19.0392
rfingers 7.12502
rthumb 5.3679 -48.9512
lclavicle -5.56597e-014 -6.99722e-014
lhumerus -8.01449 -31.449 91.5429
lradius 66.9499
lwrist 29.273
lhand -26.5698 53.7826
lfingers 7.12502
lthumb -0.00455679 -996.238
rfemur -36.311 -15.3059 6.45244
rtibia 35.6179
rfoot -15.5563 -17.3015
rtoes 11.1413
lfemur -29.0624 -8.20125 -21.6837
ltibia 26.6549
lfoot -10.0756 -12.6439
ltoes -3.05929
1949
root 1.21576 17.6794 -4.06141 139.899 82.0721 125.034
lowerback 13.4911 5.17366 2.4994
upperback 8.18959 7.81337 7.90496
thorax 0.336615 4.09009 5.86263
lowerneck -9.81536 -14.4616 -7.55478
upperneck 28.3051 -19.5065 6.33421
head 12.3841 -8.40818 0.858759
rclavicle 6.83819e-014 -3.18055e-015
rhumerus 19.2735 -2.70777 -103.343
rradius 37.0672
rwrist -31.9796
rhand -21.2178 -18.9118
rfingers 7.12502
rthumb 5.16404 -48.8289
lclavicle 6.83819e-014 -3.18055e-015
lhumerus -7.02372 -32.5755 91.3874
lradius 66.4863
lwrist 28.3396
lhand -26.2725 53.6517
lfingers 7.12502
lthumb 0.282535 -996.369
rfemur -36.68 -15.3631 6.39476
rtibia 35.5752
rfoot -15.025 -16.7738
rtoes 9.85801
lfemur -28.8555 -7.55872 -22.3768
ltibia 26.5986
lfoot -10.428 -11.9153
ltoes -5.38671
1950
root 1.2297 17.6827 -4.07985 139.487 82.1275 124.589
lowerback 13.4244 5.16338 2.43162
upperback 8.16407 7.7732 7.73579
thorax 0.362672 4.06554 5.73094
lowerneck -9.85726 -14.4027 -7.28182
upperneck 28.3414 -19.472 6.29844
head 12.3666 -8.36839 0.812169
rclavicle -2.8625e-014 5.08889e-014
rhumerus 19.729 -3.67875 -103.566
rradius 36.9823
rwrist -32.6447
rhand -21.3115 -18.7226
rfingers 7.12502
rthumb 5.07356 -48.6419
lclavicle -2.8625e-014 5.08889e-014
lhumerus -5.97195 -33.832 91.0717
lradius 66.0738
lwrist 27.4873
lhand -25.7485 53.2997
lfingers 7.12502
lthumb 0.788618 -996.722
rfemur -37.1666 -15.2231 6.56129
rtibia 35.5464
rfoot -14.5835 -16.1869
rtoes 7.97871
lfemur -28.7386 -7.3585 -22.4759
ltibia 26.4572
lfoot -10.4269 -11.6708
ltoes -5.23293
1951
root 1.23894 17.7011 -4.0926 141.895 82.4057 126.885
lowerback 13.3748 5.12515 2.76068
upperback 8.08483 7.75416 7.67564
thorax 0.356842 4.06444 5.48781
lowerneck -9.98368 -14.351 -6.98348
upperneck 28.327 -19.4736 6.33371
head 12.3547 -8.33436 0.775063
rclavicle 8.42847e-014 3.18055e-014
rhumerus 20.1791 -4.7715 -103.689
rradius 36.9423
rwrist -33.1394
rhand -20.9573 -19.2712
rfingers 7.12502
rthumb 5.41558 -49.182
lclavicle 8.42847e-014 3.18055e-014
lhumerus -4.87902 -35.2801 90.6901
lradius 65.6797
lwrist 26.8588
lhand -25.2784 52.9161
lfingers 7.12502
lthumb 1.24272 -997.108
rfemur -37.6707 -14.7616 7.08299
rtibia 35.4731
rfoot -14.9202 -15.2775
rtoes 9.38441
lfemur -28.7873 -7.3024 -21.9708
ltibia 26.286
lfoot -10.178 -12.2377
ltoes -3.86313
